<svg width="200" height="40" viewBox="0 0 200 40" fill="none" xmlns="http://www.w3.org/2000/svg">
<path d="M40.4325 30L47.1145 10.63H51.6905L58.3725 30H54.5245L53.1465 25.84H45.6585L44.2545 30H40.4325ZM46.6725 22.72H52.1325L48.9085 13.074H49.8965L46.6725 22.72ZM60.2423 35.2V15.856H63.4403V18.664L63.1283 17.962C63.6136 17.1993 64.2723 16.61 65.1043 16.194C65.9363 15.7607 66.8983 15.544 67.9903 15.544C69.3249 15.544 70.5296 15.8733 71.6043 16.532C72.6789 17.1907 73.5283 18.0747 74.1523 19.184C74.7936 20.2933 75.1143 21.5413 75.1143 22.928C75.1143 24.2973 74.8023 25.5453 74.1783 26.672C73.5543 27.7987 72.7049 28.6913 71.6303 29.35C70.5556 29.9913 69.3336 30.312 67.9643 30.312C66.9416 30.312 65.9969 30.1127 65.1303 29.714C64.2809 29.298 63.6049 28.7087 63.1023 27.946L63.6483 27.27V35.2H60.2423ZM67.5743 27.192C68.3543 27.192 69.0476 27.01 69.6543 26.646C70.2609 26.282 70.7289 25.7793 71.0583 25.138C71.4049 24.4967 71.5783 23.76 71.5783 22.928C71.5783 22.096 71.4049 21.368 71.0583 20.744C70.7289 20.1027 70.2609 19.6 69.6543 19.236C69.0476 18.8547 68.3543 18.664 67.5743 18.664C66.8289 18.664 66.1529 18.846 65.5463 19.21C64.9569 19.574 64.4889 20.0853 64.1423 20.744C63.8129 21.3853 63.6483 22.1133 63.6483 22.928C63.6483 23.76 63.8129 24.4967 64.1423 25.138C64.4889 25.7793 64.9569 26.282 65.5463 26.646C66.1529 27.01 66.8289 27.192 67.5743 27.192ZM77.711 35.2V15.856H80.909V18.664L80.597 17.962C81.0823 17.1993 81.741 16.61 82.573 16.194C83.405 15.7607 84.367 15.544 85.459 15.544C86.7937 15.544 87.9983 15.8733 89.073 16.532C90.1477 17.1907 90.997 18.0747 91.621 19.184C92.2623 20.2933 92.583 21.5413 92.583 22.928C92.583 24.2973 92.271 25.5453 91.647 26.672C91.023 27.7987 90.1737 28.6913 89.099 29.35C88.0243 29.9913 86.8023 30.312 85.433 30.312C84.4103 30.312 83.4657 30.1127 82.599 29.714C81.7497 29.298 81.0737 28.7087 80.571 27.946L81.117 27.27V35.2H77.711ZM85.043 27.192C85.823 27.192 86.5163 27.01 87.123 26.646C87.7297 26.282 88.1977 25.7793 88.527 25.138C88.8737 24.4967 89.047 23.76 89.047 22.928C89.047 22.096 88.8737 21.368 88.527 20.744C88.1977 20.1027 87.7297 19.6 87.123 19.236C86.5163 18.8547 85.823 18.664 85.043 18.664C84.2977 18.664 83.6217 18.846 83.015 19.21C82.4257 19.574 81.9577 20.0853 81.611 20.744C81.2817 21.3853 81.117 22.1133 81.117 22.928C81.117 23.76 81.2817 24.4967 81.611 25.138C81.9577 25.7793 82.4257 26.282 83.015 26.646C83.6217 27.01 84.2977 27.192 85.043 27.192ZM102.096 30.312C100.709 30.312 99.4438 29.9913 98.2998 29.35C97.1731 28.7087 96.2718 27.8333 95.5958 26.724C94.9371 25.6147 94.6078 24.3493 94.6078 22.928C94.6078 21.5067 94.9371 20.2413 95.5958 19.132C96.2718 18.0227 97.1731 17.1473 98.2998 16.506C99.4264 15.8647 100.692 15.544 102.096 15.544C103.482 15.544 104.739 15.8647 105.866 16.506C106.992 17.1473 107.885 18.0227 108.544 19.132C109.22 20.224 109.558 21.4893 109.558 22.928C109.558 24.3493 109.22 25.6147 108.544 26.724C107.868 27.8333 106.966 28.7087 105.84 29.35C104.713 29.9913 103.465 30.312 102.096 30.312ZM102.096 27.192C102.858 27.192 103.526 27.01 104.098 26.646C104.687 26.282 105.146 25.7793 105.476 25.138C105.822 24.4793 105.996 23.7427 105.996 22.928C105.996 22.096 105.822 21.368 105.476 20.744C105.146 20.1027 104.687 19.6 104.098 19.236C103.526 18.8547 102.858 18.664 102.096 18.664C101.316 18.664 100.631 18.8547 100.042 19.236C99.4524 19.6 98.9844 20.1027 98.6378 20.744C98.3084 21.368 98.1438 22.096 98.1438 22.928C98.1438 23.7427 98.3084 24.4793 98.6378 25.138C98.9844 25.7793 99.4524 26.282 100.042 26.646C100.631 27.01 101.316 27.192 102.096 27.192ZM112.141 30V15.856H115.547V30H112.141ZM112.141 14.27V10.63H115.547V14.27H112.141ZM118.691 30V15.856H121.889V18.638L121.629 18.144C121.959 17.2947 122.496 16.6533 123.241 16.22C124.004 15.7693 124.888 15.544 125.893 15.544C126.933 15.544 127.852 15.7693 128.649 16.22C129.464 16.6707 130.097 17.3033 130.547 18.118C130.998 18.9153 131.223 19.8427 131.223 20.9V30H127.817V21.706C127.817 21.082 127.696 20.5447 127.453 20.094C127.211 19.6433 126.873 19.2967 126.439 19.054C126.023 18.794 125.529 18.664 124.957 18.664C124.403 18.664 123.909 18.794 123.475 19.054C123.042 19.2967 122.704 19.6433 122.461 20.094C122.219 20.5447 122.097 21.082 122.097 21.706V30H118.691ZM140.552 30.156C138.957 30.156 137.718 29.7227 136.834 28.856C135.967 27.972 135.534 26.7327 135.534 25.138V18.898H133.09V15.856H133.35C134.043 15.856 134.58 15.674 134.962 15.31C135.343 14.946 135.534 14.4173 135.534 13.724V12.632H138.94V15.856H142.19V18.898H138.94V24.956C138.94 25.424 139.018 25.8227 139.174 26.152C139.347 26.4813 139.607 26.7327 139.954 26.906C140.318 27.0793 140.777 27.166 141.332 27.166C141.453 27.166 141.592 27.1573 141.748 27.14C141.921 27.1227 142.086 27.1053 142.242 27.088V30C141.999 30.0347 141.722 30.0693 141.41 30.104C141.098 30.1387 140.812 30.156 140.552 30.156Z" fill="#4C1D95"/>
<path d="M145.13 30V10.63H148.51L155.764 20.484H154.152L161.25 10.63H164.63V30H161.068V14.66L162.446 14.998L155.088 24.8H154.672L147.496 14.998L148.666 14.66V30H145.13ZM174.759 30.312C173.303 30.312 172.029 29.9827 170.937 29.324C169.845 28.6653 168.996 27.7727 168.389 26.646C167.782 25.5193 167.479 24.2713 167.479 22.902C167.479 21.4807 167.782 20.224 168.389 19.132C169.013 18.0227 169.854 17.1473 170.911 16.506C171.986 15.8647 173.182 15.544 174.499 15.544C175.608 15.544 176.579 15.726 177.411 16.09C178.26 16.454 178.98 16.9567 179.569 17.598C180.158 18.2393 180.609 18.976 180.921 19.808C181.233 20.6227 181.389 21.5067 181.389 22.46C181.389 22.7027 181.372 22.954 181.337 23.214C181.32 23.474 181.276 23.6993 181.207 23.89H170.287V21.29H179.283L177.671 22.512C177.827 21.7147 177.784 21.004 177.541 20.38C177.316 19.756 176.934 19.262 176.397 18.898C175.877 18.534 175.244 18.352 174.499 18.352C173.788 18.352 173.156 18.534 172.601 18.898C172.046 19.2447 171.622 19.7647 171.327 20.458C171.05 21.134 170.946 21.9573 171.015 22.928C170.946 23.7947 171.058 24.566 171.353 25.242C171.665 25.9007 172.116 26.412 172.705 26.776C173.312 27.14 174.005 27.322 174.785 27.322C175.565 27.322 176.224 27.1573 176.761 26.828C177.316 26.4987 177.749 26.0567 178.061 25.502L180.817 26.854C180.54 27.53 180.106 28.128 179.517 28.648C178.928 29.168 178.226 29.5753 177.411 29.87C176.614 30.1647 175.73 30.312 174.759 30.312ZM190.549 30.312C189.179 30.312 187.957 29.9913 186.883 29.35C185.808 28.6913 184.959 27.7987 184.335 26.672C183.711 25.5453 183.399 24.2973 183.399 22.928C183.399 21.5413 183.711 20.2933 184.335 19.184C184.959 18.0747 185.808 17.1907 186.883 16.532C187.975 15.8733 189.188 15.544 190.523 15.544C191.597 15.544 192.551 15.7607 193.383 16.194C194.232 16.61 194.899 17.1993 195.385 17.962L194.865 18.664V10.318H198.271V30H195.047V27.27L195.411 27.946C194.925 28.7087 194.249 29.298 193.383 29.714C192.516 30.1127 191.571 30.312 190.549 30.312ZM190.913 27.192C191.693 27.192 192.377 27.01 192.967 26.646C193.556 26.282 194.015 25.7793 194.345 25.138C194.691 24.4967 194.865 23.76 194.865 22.928C194.865 22.1133 194.691 21.3853 194.345 20.744C194.015 20.0853 193.556 19.574 192.967 19.21C192.377 18.846 191.693 18.664 190.913 18.664C190.15 18.664 189.465 18.8547 188.859 19.236C188.252 19.6 187.775 20.1027 187.429 20.744C187.099 21.368 186.935 22.096 186.935 22.928C186.935 23.76 187.099 24.4967 187.429 25.138C187.775 25.7793 188.252 26.282 188.859 26.646C189.465 27.01 190.15 27.192 190.913 27.192Z" fill="#7950F2"/>
<path d="M31.7648 2.35303H8.23538C4.98665 2.35303 2.35303 4.98665 2.35303 8.23538V31.7648C2.35303 35.0135 4.98665 37.6471 8.23538 37.6471H31.7648C35.0135 37.6471 37.6471 35.0135 37.6471 31.7648V8.23538C37.6471 4.98665 35.0135 2.35303 31.7648 2.35303Z" fill="url(#paint0_linear_112_17)"/>
<path d="M28.2355 19.4117H22.9414V13.5293" stroke="white" stroke-opacity="0.8" stroke-width="2.64706" stroke-linecap="round" stroke-linejoin="round"/>
<path d="M11.7646 20.5881H17.0588V25.8823" stroke="white" stroke-opacity="0.8" stroke-width="2.64706" stroke-linecap="round" stroke-linejoin="round"/>
<path d="M19.9999 11.7646V17.647H13.5293" stroke="white" stroke-opacity="0.8" stroke-width="2.64706" stroke-linecap="round" stroke-linejoin="round"/>
<path d="M20 28.2354V22.353H25.8824" stroke="white" stroke-opacity="0.8" stroke-width="2.64706" stroke-linecap="round" stroke-linejoin="round"/>
<defs>
<linearGradient id="paint0_linear_112_17" x1="40.0001" y1="8.61168e-05" x2="8.61168e-05" y2="40.0001" gradientUnits="userSpaceOnUse">
<stop stop-color="#A78BFA"/>
<stop offset="1" stop-color="#7950f2"/>
</linearGradient>
</defs>
</svg>
